<svg class="svg-icon" style="width: 1em;height: 1em;vertical-align: middle;fill: currentColor;overflow: hidden;" viewBox="0 0 1024 1024" version="1.1" xmlns="http://www.w3.org/2000/svg"><path d="M512 81.86C274.454 81.86 81.868 274.444 81.868 512S274.454 942.144 512 942.144c237.57 0 430.14-192.588 430.14-430.144S749.57 81.86 512 81.86z" fill="#EDF3FC" /><path d="M512 2C230.79 2 2 230.786 2 512s228.79 510 510 510c281.214 0 510-228.786 510-510S793.214 2 512 2z m0 1003.662C239.796 1005.662 18.348 784.204 18.348 512S239.796 18.338 512 18.338 1005.656 239.796 1005.656 512 784.204 1005.662 512 1005.662z" fill="#EDF3FC" /><path d="M809.192 263.678a57.724 57.724 0 0 1-41.95-41.96l-0.89-3.526-0.886 3.526a57.72 57.72 0 0 1-41.956 41.96l-3.528 0.888 3.528 0.884a57.706 57.706 0 0 1 41.956 41.96l0.886 3.528 0.89-3.528a57.718 57.718 0 0 1 41.95-41.96l3.536-0.884-3.536-0.888z" fill="#330D84" /><path d="M858.536 667.57a75.836 75.836 0 0 1-55.118-55.126l-1.172-4.63-1.156 4.63a75.832 75.832 0 0 1-55.128 55.126l-4.632 1.166 4.632 1.162a75.824 75.824 0 0 1 55.128 55.122l1.156 4.634 1.172-4.634a75.824 75.824 0 0 1 55.118-55.122l4.636-1.162-4.636-1.166z" fill="#5D8EF9" /><path d="M687.816 204.592a43.436 43.436 0 0 1-31.586-31.578l-0.672-2.654-0.672 2.654a43.414 43.414 0 0 1-31.578 31.578l-2.64 0.668 2.64 0.662a43.41 43.41 0 0 1 31.578 31.588l0.672 2.646 0.672-2.646a43.436 43.436 0 0 1 31.586-31.588l2.64-0.662-2.64-0.668z" fill="#330D84" /><path d="M227.856 512.084a68.606 68.606 0 0 1-49.886-49.892l-1.05-4.19-1.066 4.19a68.592 68.592 0 0 1-49.89 49.892l-4.18 1.05 4.18 1.05a68.568 68.568 0 0 1 49.89 49.89l1.066 4.19 1.05-4.19a68.58 68.58 0 0 1 49.886-49.89l4.192-1.05-4.192-1.05z" fill="#FFBE1B" /><path d="M669.688 280.566H328.242c-27.786 0-50.316 22.524-50.316 50.296v93.296H719.98v-93.296c0-27.774-22.516-50.296-50.292-50.296z" fill="#330D84" /><path d="M277.926 424.054v132.512a130.228 130.228 0 0 1 46.61-8.596c72.122 0 130.602 58.462 130.602 130.596 0 49.934-28.04 93.302-69.218 115.274h283.77c27.778 0 50.292-22.518 50.292-50.304V424.054H277.926z" fill="#6857E5" /><path d="M400.328 472.096h-49.626a8.36 8.36 0 0 0-8.356 8.356v49.614a8.36 8.36 0 0 0 8.356 8.356h49.626a8.36 8.36 0 0 0 8.356-8.356v-49.614a8.36 8.36 0 0 0-8.356-8.356zM523.77 472.096h-49.626a8.36 8.36 0 0 0-8.356 8.356v49.614a8.36 8.36 0 0 0 8.356 8.356h49.626a8.352 8.352 0 0 0 8.348-8.356v-49.614a8.352 8.352 0 0 0-8.348-8.356zM647.21 472.096h-49.622a8.35 8.35 0 0 0-8.348 8.356v49.614a8.35 8.35 0 0 0 8.348 8.356h49.622a8.356 8.356 0 0 0 8.356-8.356v-49.614a8.356 8.356 0 0 0-8.356-8.356zM523.77 577.39h-49.626a8.36 8.36 0 0 0-8.356 8.356v49.614a8.36 8.36 0 0 0 8.356 8.356h49.626a8.352 8.352 0 0 0 8.348-8.356v-49.614a8.352 8.352 0 0 0-8.348-8.356zM647.21 577.39h-49.622a8.35 8.35 0 0 0-8.348 8.356v49.614a8.35 8.35 0 0 0 8.348 8.356h49.622a8.356 8.356 0 0 0 8.356-8.356v-49.614a8.354 8.354 0 0 0-8.356-8.356zM523.77 682.682h-49.626a8.358 8.358 0 0 0-8.356 8.356v49.614a8.36 8.36 0 0 0 8.356 8.356h49.626a8.352 8.352 0 0 0 8.348-8.356v-49.614a8.352 8.352 0 0 0-8.348-8.356zM647.21 682.682h-49.622a8.348 8.348 0 0 0-8.348 8.356v49.614a8.35 8.35 0 0 0 8.348 8.356h49.622a8.356 8.356 0 0 0 8.356-8.356v-49.614a8.356 8.356 0 0 0-8.356-8.356z" fill="#FFFFFF" /><path d="M324.536 547.97c-72.124 0-130.598 58.462-130.598 130.596 0 72.126 58.472 130.592 130.598 130.592 72.122 0 130.602-58.466 130.602-130.592-0.002-72.134-58.482-130.596-130.602-130.596z" fill="#FFBE1B" /><path d="M324.536 580.53c-54.14 0-98.036 43.888-98.036 98.034 0 54.136 43.894 98.026 98.036 98.026 54.128 0 98.024-43.89 98.024-98.026-0.002-54.146-43.896-98.034-98.024-98.034z" fill="#FFE37B" /><path d="M364.062 684.678c-3.504-4.026-8.196-6.688-14.098-7.958a76.2 76.2 0 0 0 3.406-1.562c0.636-0.316 1.774-1.108 3.402-2.388 4.816-3.622 7.214-9.156 7.214-16.596 0-6.166-2.126-11.696-6.39-16.592-2.364-2.632-5.872-4.718-10.542-6.264a40.312 40.312 0 0 0-4.454-1.15v-12.098h-16.692v10.946h-11.18v-10.946h-16.704v10.946H279.766v17.952h13.598v59.188h-13.598v17.964H298.024v10.938h16.704v-10.938h11.18v10.938h16.692v-11.354c9.062-0.974 15.718-3.762 19.886-8.432 4.54-5.072 6.808-10.922 6.808-17.552 0.002-5.99-1.744-10.994-5.232-15.042z m-49.468-35.716h10.214c6.254 0 10.692 0.686 13.328 2.048 2.628 1.356 3.946 4.14 3.946 8.364 0 4.22-1.426 6.964-4.29 8.222-2.848 1.276-7.226 1.912-13.122 1.912h-10.078v-20.546z m28.234 56.942c-3.04 1.498-7.594 2.248-13.672 2.248h-14.562v-21.906h12.524c7.082 0 12.222 0.708 15.438 2.106 3.222 1.408 4.836 4.314 4.836 8.712-0.002 4.396-1.524 7.348-4.564 8.84z" fill="#FFFFFF" /><path d="M331.266 319.418h335.376v71.228H331.266z" fill="#8AC9F9" /></svg>